{
    "asset" : {
        "generator" : "Khronos glTF Blender I/O v1.2.75",
        "version" : "2.0"
    },
    "scene" : 0,
    "scenes" : [
        {
            "name" : "Scene",
            "nodes" : [
                0
            ]
        }
    ],
    "nodes" : [
        {
            "mesh" : 0,
            "name" : "newSphere.rotate.cut"
        }
    ],
    "meshes" : [
        {
            "name" : "Cube.002",
            "primitives" : [
                {
                    "attributes" : {
                        "POSITION" : 0,
                        "NORMAL" : 1,
                        "TEXCOORD_0" : 2
                    },
                    "indices" : 3
                }
            ]
        }
    ],
    "accessors" : [
        {
            "bufferView" : 0,
            "componentType" : 5126,
            "count" : 29164,
            "max" : [
                0.9949342608451843,
                0.992645800113678,
                0.9855974316596985
            ],
            "min" : [
                -0.8783177733421326,
                -0.9991838932037354,
                -0.9906699657440186
            ],
            "type" : "VEC3"
        },
        {
            "bufferView" : 1,
            "componentType" : 5126,
            "count" : 29164,
            "type" : "VEC3"
        },
        {
            "bufferView" : 2,
            "componentType" : 5126,
            "count" : 29164,
            "type" : "VEC2"
        },
        {
            "bufferView" : 3,
            "componentType" : 5123,
            "count" : 158919,
            "type" : "SCALAR"
        }
    ],
    "bufferViews" : [
        {
            "buffer" : 0,
            "byteLength" : 349968,
            "byteOffset" : 0
        },
        {
            "buffer" : 0,
            "byteLength" : 349968,
            "byteOffset" : 349968
        },
        {
            "buffer" : 0,
            "byteLength" : 233312,
            "byteOffset" : 699936
        },
        {
            "buffer" : 0,
            "byteLength" : 317838,
            "byteOffset" : 933248
        }
    ],
    "buffers" : [
        {
            "byteLength" : 1251088,
            "uri" : "data:application/octet-stream;base64,"
        }
    ]
}
