{
    "asset" : {
        "generator" : "Khronos glTF Blender I/O v1.2.75",
        "version" : "2.0"
    },
    "scene" : 0,
    "scenes" : [
        {
            "name" : "Scene",
            "nodes" : [
                0
            ]
        }
    ],
    "nodes" : [
        {
            "mesh" : 0,
            "name" : "newSphere.rotate.cut"
        }
    ],
    "meshes" : [
        {
            "name" : "Cube.002",
            "primitives" : [
                {
                    "attributes" : {
                        "POSITION" : 0,
                        "NORMAL" : 1,
                        "TEXCOORD_0" : 2
                    },
                    "indices" : 3
                }
            ]
        }
    ],
    "accessors" : [
        {
            "bufferView" : 0,
            "componentType" : 5126,
            "count" : 28681,
            "max" : [
                0.9949342608451843,
                0.992645800113678,
                0.9855974316596985
            ],
            "min" : [
                -0.834423840045929,
                -0.9991838932037354,
                -0.9891283512115479
            ],
            "type" : "VEC3"
        },
        {
            "bufferView" : 1,
            "componentType" : 5126,
            "count" : 28681,
            "type" : "VEC3"
        },
        {
            "bufferView" : 2,
            "componentType" : 5126,
            "count" : 28681,
            "type" : "VEC2"
        },
        {
            "bufferView" : 3,
            "componentType" : 5123,
            "count" : 157866,
            "type" : "SCALAR"
        }
    ],
    "bufferViews" : [
        {
            "buffer" : 0,
            "byteLength" : 344172,
            "byteOffset" : 0
        },
        {
            "buffer" : 0,
            "byteLength" : 344172,
            "byteOffset" : 344172
        },
        {
            "buffer" : 0,
            "byteLength" : 229448,
            "byteOffset" : 688344
        },
        {
            "buffer" : 0,
            "byteLength" : 315732,
            "byteOffset" : 917792
        }
    ],
    "buffers" : [
        {
            "byteLength" : 1233524,
            "uri" : "data:application/octet-stream;base64,"
        }
    ]
}
